<svg width="17" height="18" viewBox="0 0 17 18" fill="none" xmlns="http://www.w3.org/2000/svg">
<path d="M8.455 0.544998C7.86315 0.544998 7.39812 1.01002 7.39812 1.60187C7.39812 2.19372 7.86315 2.65875 8.455 2.65875C9.04685 2.65875 9.51188 2.19372 9.51188 1.60187C9.51188 1.01002 9.04685 0.544998 8.455 0.544998ZM3.17062 2.65875C2.57877 2.65875 2.11375 3.12377 2.11375 3.71562C2.11375 4.30747 2.57877 4.7725 3.17062 4.7725C3.76248 4.7725 4.2275 4.30747 4.2275 3.71562C4.2275 3.12377 3.76248 2.65875 3.17062 2.65875ZM13.7394 2.65875C13.1475 2.65875 12.6825 3.12377 12.6825 3.71562C12.6825 4.30747 13.1475 4.7725 13.7394 4.7725C14.3312 4.7725 14.7962 4.30747 14.7962 3.71562C14.7962 3.12377 14.3312 2.65875 13.7394 2.65875ZM8.455 4.7725C6.12987 4.7725 4.2275 6.67487 4.2275 9C4.2275 11.3251 6.12987 13.2275 8.455 13.2275C10.7801 13.2275 12.6825 11.3251 12.6825 9C12.6825 6.67487 10.7801 4.7725 8.455 4.7725ZM1.05687 7.94312C0.465025 7.94312 0 8.40815 0 9C0 9.59185 0.465025 10.0569 1.05687 10.0569C1.64873 10.0569 2.11375 9.59185 2.11375 9C2.11375 8.40815 1.64873 7.94312 1.05687 7.94312ZM15.8531 7.94312C15.2613 7.94312 14.7962 8.40815 14.7962 9C14.7962 9.59185 15.2613 10.0569 15.8531 10.0569C16.445 10.0569 16.91 9.59185 16.91 9C16.91 8.40815 16.445 7.94312 15.8531 7.94312ZM3.17062 13.2275C2.57877 13.2275 2.11375 13.6925 2.11375 14.2844C2.11375 14.8762 2.57877 15.3412 3.17062 15.3412C3.76248 15.3412 4.2275 14.8762 4.2275 14.2844C4.2275 13.6925 3.76248 13.2275 3.17062 13.2275ZM13.7394 13.2275C13.1475 13.2275 12.6825 13.6925 12.6825 14.2844C12.6825 14.8762 13.1475 15.3412 13.7394 15.3412C14.3312 15.3412 14.7962 14.8762 14.7962 14.2844C14.7962 13.6925 14.3312 13.2275 13.7394 13.2275ZM8.455 15.3412C7.86315 15.3412 7.39812 15.8063 7.39812 16.3981C7.39812 16.99 7.86315 17.455 8.455 17.455C9.04685 17.455 9.51188 16.99 9.51188 16.3981C9.51188 15.8063 9.04685 15.3412 8.455 15.3412Z" fill="white"/>
</svg>
